<svg width="32" height="32" viewBox="0 0 32 32" fill="none" xmlns="http://www.w3.org/2000/svg">
<g clip-path="url(#clip0_1553_37)">
<mask id="mask0_1553_37" style="mask-type:luminance" maskUnits="userSpaceOnUse" x="0" y="0" width="32" height="32">
<path d="M32 0H0V32H32V0Z" fill="white"/>
</mask>
<g mask="url(#mask0_1553_37)">
<path d="M16.0001 2.66699C16.3537 2.66699 16.6928 2.80747 16.9429 3.05752C17.1929 3.30756 17.3334 3.6467 17.3334 4.00033V4.07366C20.0386 4.37688 22.5604 5.59042 24.4852 7.51523C26.41 9.44004 27.6235 11.9618 27.9267 14.667H28.0001C28.3537 14.667 28.6928 14.8075 28.9429 15.0575C29.1929 15.3076 29.3334 15.6467 29.3334 16.0003C29.3334 16.3539 29.1929 16.6931 28.9429 16.9431C28.6928 17.1932 28.3537 17.3337 28.0001 17.3337H27.9267C27.6235 20.0388 26.41 22.5606 24.4852 24.4854C22.5604 26.4102 20.0386 27.6238 17.3334 27.927V28.0003C17.3334 28.3539 17.1929 28.6931 16.9429 28.9431C16.6928 29.1932 16.3537 29.3337 16.0001 29.3337C15.6465 29.3337 15.3073 29.1932 15.0573 28.9431C14.8072 28.6931 14.6667 28.3539 14.6667 28.0003V27.927C11.9616 27.6238 9.43979 26.4102 7.51498 24.4854C5.59017 22.5606 4.37663 20.0388 4.07341 17.3337H4.00008C3.64646 17.3337 3.30732 17.1932 3.05727 16.9431C2.80722 16.6931 2.66675 16.3539 2.66675 16.0003C2.66675 15.6467 2.80722 15.3076 3.05727 15.0575C3.30732 14.8075 3.64646 14.667 4.00008 14.667H4.07341C4.37663 11.9618 5.59017 9.44004 7.51498 7.51523C9.43979 5.59042 11.9616 4.37688 14.6667 4.07366V4.00033C14.6667 3.6467 14.8072 3.30756 15.0573 3.05752C15.3073 2.80747 15.6465 2.66699 16.0001 2.66699ZM17.3334 6.76033V8.00033C17.333 8.34016 17.2029 8.66704 16.9696 8.91415C16.7363 9.16126 16.4175 9.30997 16.0782 9.32989C15.739 9.3498 15.4049 9.23943 15.1443 9.02131C14.8837 8.80318 14.7162 8.49379 14.6761 8.15633L14.6667 8.00033V6.76033C12.7305 7.04075 10.9311 7.92207 9.52253 9.27992C8.11397 10.6378 7.16729 12.4036 6.81608 14.3283L6.76141 14.667H8.00008C8.33992 14.6674 8.66679 14.7975 8.91391 15.0308C9.16102 15.2641 9.30973 15.5829 9.32964 15.9222C9.34956 16.2614 9.23918 16.5955 9.02106 16.8561C8.80294 17.1167 8.49354 17.2842 8.15608 17.3243L8.00008 17.3337H6.76008C7.04051 19.2699 7.92182 21.0693 9.27968 22.4779C10.6375 23.8864 12.4034 24.8331 14.3281 25.1843L14.6667 25.239V24.0003C14.6671 23.6605 14.7973 23.3336 15.0305 23.0865C15.2638 22.8394 15.5827 22.6907 15.9219 22.6708C16.2612 22.6508 16.5953 22.7612 16.8559 22.9793C17.1165 23.1975 17.2839 23.5069 17.3241 23.8443L17.3334 24.0003V25.2403C19.2697 24.9599 21.0691 24.0786 22.4776 22.7207C23.8862 21.3629 24.8329 19.597 25.1841 17.6723L25.2387 17.3337H24.0001C23.6602 17.3333 23.3334 17.2032 23.0863 16.9699C22.8391 16.7366 22.6904 16.4177 22.6705 16.0785C22.6506 15.7392 22.761 15.4052 22.9791 15.1445C23.1972 14.8839 23.5066 14.7165 23.8441 14.6763L24.0001 14.667H25.2401C24.9597 12.7307 24.0783 10.9313 22.7205 9.52278C21.3626 8.11421 19.5968 7.16754 17.6721 6.81633L17.3334 6.76033Z" fill="black"/>
</g>
</g>
<defs>
<clipPath id="clip0_1553_37">
<rect width="32" height="32" fill="white"/>
</clipPath>
</defs>
</svg>
